<svg viewBox="0 0 16 16" fill="none" xmlns="http://www.w3.org/2000/svg" id="Docker--Streamline-Unicons" height="16" width="16">
  <desc>
    Docker Streamline Icon: https://streamlinehq.com
  </desc>
  <path d="M5.4912 5.640666666666666h1.4112c0.0784 0 0.1568 -0.0784 0.1568 -0.1568v-1.176c0 -0.0784 -0.0784 -0.1568 -0.1568 -0.1568H5.4912c-0.0784 0 -0.1568 0.0784 -0.1568 0.1568v1.2544s0.0784 0.0784 0.1568 0.0784Zm1.8816 1.8032h1.4112c0.0784 0 0.1568 -0.0784 0.1568 -0.1568V6.032666666666666c0 -0.0784 -0.0784 -0.1568 -0.1568 -0.1568h-1.4112c-0.0784 0 -0.1568 0.0784 -0.1568 0.1568v1.2544c0 0.0784 0.0784 0.1568 0.1568 0.1568Zm0 -1.8032h1.4112c0.0784 0 0.1568 -0.0784 0.1568 -0.1568v-1.176l-0.1568 -0.1568h-1.4112c-0.0784 0 -0.1568 0.0784 -0.1568 0.1568v1.2544s0.0784 0.0784 0.1568 0.0784Zm1.96 1.8032h1.4112c0.0784 0 0.1568 -0.0784 0.1568 -0.1568V6.032666666666666c0 -0.0784 -0.0784 -0.1568 -0.1568 -0.1568h-1.4112c-0.0784 0 -0.1568 0.0784 -0.1568 0.1568v1.2544c0 0.0784 0.0784 0.1568 0.1568 0.1568Zm-1.96 -3.6064h1.4112c0.0784 0 0.1568 -0.0784 0.1568 -0.1568V2.5046666666666666c0 -0.0784 -0.0784 -0.1568 -0.1568 -0.1568h-1.4112c-0.0784 0 -0.1568 0.0784 -0.1568 0.1568v1.2544c0 0.0784 0.0784 0.0784 0.1568 0.0784Zm-5.8016000000000005 3.6064h1.4112c0.0784 0 0.1568 -0.0784 0.1568 -0.1568V6.032666666666666c0 -0.0784 -0.0784 -0.1568 -0.1568 -0.1568H1.5711999999999997c-0.0784 0 -0.1568 0.0784 -0.1568 0.1568v1.2544l0.1568 0.1568Zm14.111999999999998 -0.7839999999999999c-0.39199999999999996 -0.2352 -0.8624 -0.39199999999999996 -1.2544 -0.3136 -0.2352 0 -0.4704 0 -0.6272 0.0784 -0.1568 -0.7056 -0.5488 -1.3328 -1.0976 -1.6463999999999999l-0.2352 -0.1568 -0.1568 0.2352c-0.2352 0.1568 -0.39199999999999996 0.4704 -0.4704 0.8624 -0.1568 0.6272 -0.0784 1.2544 0.2352 1.7248 -0.39199999999999996 0.1568 -0.7839999999999999 0.2352 -1.176 0.3136H0.6304c-0.2352 0 -0.4704 0.2352 -0.4704 0.4704 0 0.9408 0.1568 1.8032 0.4704 2.6656 0.3136 0.8624 0.8624 1.5679999999999998 1.5679999999999998 2.0383999999999998 1.0976 0.5488 2.2736 0.7839999999999999 3.4496 0.7056 0.6272 0 1.2544 -0.0784 1.8816 -0.1568 0.8624 -0.1568 1.7248 -0.4704 2.5088 -0.9408 0.6272 -0.39199999999999996 1.176 -0.8624 1.7248 -1.4112 0.7056 -0.8624 1.2544 -1.8032 1.6463999999999999 -2.9008000000000003h0.1568c0.6272 0 1.2544 -0.2352 1.7248 -0.6272 0.2352 -0.1568 0.39199999999999996 -0.39199999999999996 0.4704 -0.7056l0.0784 -0.1568 -0.1568 -0.0784Zm-12.152000000000001 0.7839999999999999H4.864c0.0784 0 0.1568 -0.0784 0.1568 -0.1568V6.032666666666666c0 -0.0784 -0.0784 -0.1568 -0.1568 -0.1568H3.5312c-0.0784 0 -0.1568 0.0784 -0.1568 0.1568v1.2544c0 0.0784 0.0784 0.1568 0.1568 0.1568Zm0 -1.8032H4.864c0.0784 0 0.1568 -0.0784 0.1568 -0.1568v-1.176c0 -0.0784 -0.0784 -0.1568 -0.1568 -0.1568H3.5312c-0.0784 0 -0.1568 0.0784 -0.1568 0.1568v1.2544s0.0784 0.0784 0.1568 0.0784Zm1.96 1.8032h1.4112c0.0784 0 0.1568 -0.0784 0.1568 -0.1568V6.032666666666666c0 -0.0784 -0.0784 -0.1568 -0.1568 -0.1568H5.4912c-0.0784 0 -0.1568 0.0784 -0.1568 0.1568v1.2544c0 0.0784 0.0784 0.1568 0.1568 0.1568Z" fill="#000000" stroke-width="0.6667"></path>
</svg>