<svg xmlns="http://www.w3.org/2000/svg" fill="none" viewBox="0 0 48 48" id="Logo-Javascript--Streamline-Ionic-Filled" height="48" width="48">
  <desc>
    Logo Javascript Streamline Icon: https://streamlinehq.com
  </desc>
  <path fill="#000000" d="M0.48 0.48v47.04h47.04V0.48H0.48Zm25.2 36.54c0 4.579 -2.7048 6.8113 -6.6202 6.8113 -3.5365 0 -5.5892 -1.8312 -6.6308 -4.0414l3.5993 -2.1788c0.6941 1.2317 1.2212 2.2733 2.7364 2.2733 1.26 0 2.2953 -0.5681 2.2953 -2.7783V22.32h4.62v14.7Zm10.4318 6.7063c-4.1045 0 -6.7569 -1.8522 -8.0515 -4.41L31.665 37.23c0.9449 1.5477 2.1787 2.5788 4.3575 2.5788 1.8312 0 2.8948 -0.8107 2.8948 -2.0738 0 -1.5152 -1.0952 -2.0517 -3.1163 -2.9399l-1.1047 -0.4747c-3.1899 -1.3566 -5.3046 -3.0618 -5.3046 -6.6622 0 -3.3149 2.5253 -5.7361 6.4722 -5.7361 2.8109 0 4.8301 0.8736 6.2843 3.4314L38.7 27.57c-0.7581 -1.3576 -1.5751 -1.89 -2.8414 -1.89 -1.2946 0 -2.1157 0.8211 -2.1157 1.89 0 1.3262 0.8211 1.8627 2.7153 2.6838l1.1047 0.4735c3.7578 1.6108 5.8736 3.2551 5.8736 6.9469 0.0011 3.9794 -3.1248 6.0521 -7.3247 6.0521Z" stroke-width="1"></path>
</svg>